<svg width="81" height="38" viewBox="0 0 81 38" fill="none" xmlns="http://www.w3.org/2000/svg">
<path d="M12.6656 27.2497C13.5922 27.7021 14.3035 28.345 14.7985 29.1787C15.2945 30.0123 15.542 30.9891 15.542 32.1091V32.3244C15.542 33.4454 15.2907 34.425 14.7881 35.2662C14.2854 36.1065 13.5742 36.7533 12.6552 37.2056C11.7353 37.658 10.6513 37.8847 9.40136 37.8847C7.87828 37.8847 6.6217 37.4892 5.63065 36.6992L5.54435 37.6258H2.63477V22.6273H5.75868V27.6698C6.76395 26.9367 7.97786 26.5707 9.40041 26.5707C10.6504 26.5707 11.7381 26.7973 12.6656 27.2497ZM12.31 32.1091C12.31 31.2622 12.0151 30.6003 11.4261 30.127C10.8372 29.6528 10.0112 29.4158 8.94804 29.4158C8.2728 29.4158 7.65162 29.5239 7.0845 29.7391C6.51643 29.9544 6.07544 30.2494 5.75963 30.623V33.8124C6.08966 34.186 6.53539 34.4838 7.09588 34.7067C7.65636 34.9295 8.27375 35.0405 8.94899 35.0405C10.0121 35.0405 10.8381 34.8034 11.4271 34.3292C12.016 33.8551 12.3109 33.1874 12.3109 32.3253V32.1091H12.31Z" fill="#2070FD"/>
<path d="M29.6467 33.1423H20.0359C20.1365 33.8176 20.4665 34.3354 21.027 34.6939C21.5875 35.0533 22.3414 35.2325 23.2898 35.2325C24.1518 35.2325 24.8555 35.1178 25.4018 34.8873C25.9471 34.6578 26.2638 34.342 26.3501 33.939H29.6258C29.4674 35.2031 28.8396 36.1762 27.7405 36.859C26.6413 37.5418 25.1581 37.8823 23.2907 37.8823C21.9687 37.8823 20.8202 37.6632 19.8434 37.2251C18.8666 36.7869 18.1193 36.1581 17.6024 35.3397C17.0856 34.5213 16.8267 33.5587 16.8267 32.4519V32.0422C16.8267 30.9213 17.0884 29.9482 17.6129 29.1222C18.1373 28.2962 18.8846 27.6646 19.8538 27.2255C20.8231 26.7873 21.9687 26.5683 23.2907 26.5683C25.3022 26.5683 26.8642 27.0462 27.9775 28.0012C29.0909 28.9572 29.6476 30.2963 29.6476 32.0204V33.1423H29.6467ZM21.1996 29.6305C20.6533 29.9321 20.2948 30.356 20.1222 30.9023H26.3501C26.1775 30.357 25.8257 29.9321 25.2946 29.6305C24.7626 29.329 24.0873 29.1782 23.2689 29.1782C22.4353 29.1782 21.7458 29.329 21.1996 29.6305Z" fill="#2070FD"/>
<path d="M39.9399 26.8292V29.5871H37.5263C36.1758 29.5871 35.2275 29.9247 34.6822 30.5999V37.6245H31.5791V26.8292H34.4877L34.574 27.8203C35.4788 27.1592 36.5997 26.8292 37.936 26.8292H39.9399Z" fill="#2070FD"/>
<path d="M43.8161 37.2156C42.8317 36.7708 42.0777 36.1383 41.5533 35.3189C41.0288 34.5005 40.7671 33.5303 40.7671 32.4103V32.1305C40.7671 30.9962 41.0288 30.0118 41.5533 29.1782C42.0777 28.3456 42.8317 27.7026 43.8161 27.2492C44.8005 26.7969 45.9528 26.5702 47.2748 26.5702C48.4953 26.5702 49.5916 26.7751 50.5609 27.1838C51.5301 27.5926 52.285 28.1606 52.8237 28.8861C53.3623 29.6116 53.6317 30.4414 53.6317 31.3746V31.4609H50.4215V31.3746C50.4215 30.7999 50.1303 30.3295 49.549 29.9635C48.9676 29.5974 48.2089 29.4144 47.2757 29.4144C46.2126 29.4144 45.4008 29.6477 44.8413 30.1143C44.2808 30.5809 44.001 31.2599 44.001 32.1504V32.3875C44.001 33.2496 44.2808 33.9068 44.8413 34.3591C45.4018 34.8115 46.2126 35.0382 47.2757 35.0382C48.2241 35.0382 48.9847 34.8627 49.5603 34.5099C50.135 34.1581 50.4224 33.6877 50.4224 33.0988V33.0125H53.6326V33.0988C53.6326 34.0471 53.3699 34.8836 52.8464 35.6091C52.322 36.3346 51.5823 36.8951 50.6273 37.2896C49.6713 37.6841 48.5551 37.8823 47.2767 37.8823C45.9528 37.8833 44.8005 37.6604 43.8161 37.2156Z" fill="#2070FD"/>
<path d="M67.6286 26.8292V37.6245H64.72L64.6337 36.5898C63.6853 37.4234 62.4714 37.854 60.992 37.8824C59.1389 37.8966 57.7277 37.4187 56.7575 36.4494C55.7873 35.4793 55.3027 34.0463 55.3027 32.1505V26.8292H58.4276V32.1514C58.4276 33.0856 58.6827 33.7997 59.1929 34.2957C59.7031 34.7917 60.4457 35.0392 61.4235 35.0392C62.0987 35.0392 62.7095 34.8846 63.2548 34.5755C63.801 34.2663 64.2174 33.8462 64.5047 33.3151V26.8292H67.6286Z" fill="#2070FD"/>
<path d="M75.5174 29.587V33.6811C75.5174 34.069 75.6284 34.3677 75.8512 34.5754C76.0741 34.784 76.3937 34.8874 76.81 34.8874H79.3526V37.6244H76.4003C75.1646 37.6244 74.1878 37.2906 73.4699 36.6229C72.751 35.9553 72.3925 35.0467 72.3925 33.8973V29.588H68.7944V26.8292H71.6822C71.9838 26.8292 72.1924 26.7723 72.3072 26.6566C72.4219 26.5418 72.4798 26.3332 72.4798 26.0316V23.9632H75.5183V26.8292H80.0003V29.587H75.5174Z" fill="#2070FD"/>
<path d="M13.591 16.9314L11.3955 14.736C11.093 14.4334 10.6833 14.2637 10.2556 14.2637H6.31132C5.84283 14.2637 5.60764 14.8298 5.93957 15.1618L8.13503 17.3572C8.43756 17.6598 8.84725 17.8295 9.27497 17.8295H13.2192C13.6877 17.8295 13.9229 17.2634 13.591 16.9314Z" fill="#2070FD"/>
<path d="M36.2673 0H31.1224C30.4139 0 29.7349 0.281665 29.2332 0.782402L24.9561 5.05953C24.9144 5.09652 24.8736 5.1335 24.8337 5.17334L20.771 9.23708L20.5007 9.50547C19.833 10.1684 18.7547 10.1665 18.089 9.50168L9.52997 0.942675C8.92586 0.338567 8.10742 0 7.25389 0H1.05253C0.116495 0 -0.351998 1.1314 0.309961 1.79336L15.4032 16.8866C16.0073 17.4907 16.8257 17.8293 17.6793 17.8293H23.8806C24.8167 17.8293 25.2852 16.6979 24.6232 16.0359L22.9114 14.3241C22.5084 13.9116 22.1063 13.499 21.7032 13.0874C21.0365 12.4207 21.5088 11.2818 22.4505 11.2818H25.9746C26.6831 11.2818 27.3621 11.0001 27.8628 10.4994L32.14 6.22223C32.1817 6.18524 32.2225 6.14826 32.2623 6.10842L36.8827 1.48799C37.4328 0.938882 37.044 0 36.2673 0Z" fill="#2070FD"/>
</svg>
